<svg width="40" height="40" viewBox="0 0 40 40" fill="none" xmlns="http://www.w3.org/2000/svg">
    <path d="M20 5C14.4772 5 10 9.47715 10 15C10 17.9556 11.2814 20.5997 13.3604 22.4099C11.9883 23.6163 11 25.3261 11 27.2361C11 31.0385 14.0838 34.122 17.8864 34.122H22.1136C25.9162 34.122 29 31.0385 29 27.2361C29 25.3261 28.0117 23.6163 26.6396 22.4099C28.7186 20.5997 30 17.9556 30 15C30 9.47715 25.5228 5 20 5Z" fill="#4DABF7"/>
    <path d="M17 15C17 13.3431 18.3431 12 20 12C21.6569 12 23 13.3431 23 15C23 16.6569 21.6569 18 20 18C18.3431 18 17 16.6569 17 15Z" fill="white"/>
</svg> 